<svg id="Layer_1" data-name="Layer 1" xmlns="http://www.w3.org/2000/svg" viewBox="0 0 24 24"><defs><style>.cls-1{fill:#fff;}</style></defs><title>trophy</title><path class="cls-1" d="M19,1c0,9.8-5.09,13.05-5.59,17H10.6C10.1,14.05,5,10.8,5,1ZM11.69,14.05A23,23,0,0,1,9.05,3H7.35A17.8,17.8,0,0,0,11.69,14.05ZM13.44,19H10.57c-.2,1.19-.63,2.62-2.57,2.62V23h8V21.62C14,21.62,13.63,20.19,13.44,19Zm7.08-1.6a3.41,3.41,0,0,0-3.36.3,3.5,3.5,0,0,0,1.6-3c-2.59,1-2.3,2.5-2.77,3.35-.31.57-1,.27-1,.27l-.22.35a3.87,3.87,0,0,0,1.72.32A5.54,5.54,0,0,0,20.52,17.4Zm2.44-4a3.08,3.08,0,0,0-2.5,1.77A3.35,3.35,0,0,0,20.41,12c-1.61,1.93-.75,3-.76,3.83,0,.43-.49.42-.49.42v.4C19.48,16.6,22.32,15.92,23,13.38Zm1-3.87a2.83,2.83,0,0,0-1.72,2.18,3.06,3.06,0,0,0-.84-2.75c-.91,2.07.09,2.74.3,3.5.1.37-.33.61-.33.61l.29.18C21.76,13.2,24.09,11.89,24,9.51Zm-.2-3.79a2.6,2.6,0,0,0-1,2.34,2.74,2.74,0,0,0-1.37-2.19c-.27,2,.77,2.35,1.14,3a.79.79,0,0,1,0,.66l.29,0A2.08,2.08,0,0,1,23.07,9C23.36,8.38,24.32,7.69,23.8,5.72ZM21.9,3a3.62,3.62,0,0,0,0,1.73,3.44,3.44,0,0,0,.87,1.36,3.07,3.07,0,0,0,.1-1.73A3.08,3.08,0,0,0,21.9,3ZM9.23,18.67,9,18.31s-.69.3-1-.27c-.47-.85-.18-2.31-2.77-3.35a3.5,3.5,0,0,0,1.6,3,3.41,3.41,0,0,0-3.36-.3,5.51,5.51,0,0,0,4,1.59A4.17,4.17,0,0,0,9.23,18.67Zm-4.4-2v-.41s-.49,0-.49-.41c0-.88.85-1.9-.76-3.83a3.33,3.33,0,0,0,0,3.15A3.09,3.09,0,0,0,1,13.38C1.68,15.92,4.52,16.6,4.83,16.64ZM2.3,13.23l.29-.18s-.43-.24-.32-.61c.2-.76,1.2-1.43.29-3.5a3.06,3.06,0,0,0-.84,2.75A2.83,2.83,0,0,0,0,9.51C-.09,11.89,2.24,13.2,2.3,13.23ZM.93,9a2.08,2.08,0,0,1,.17.44l.29,0a.79.79,0,0,1,0-.66c.37-.6,1.41-.93,1.14-2.95A2.74,2.74,0,0,0,1.18,8.06a2.63,2.63,0,0,0-1-2.34C-.32,7.69.64,8.38.93,9Zm.25-4.66a3.12,3.12,0,0,0,.09,1.73,3.4,3.4,0,0,0,.88-1.36A3.62,3.62,0,0,0,2.1,3,3.08,3.08,0,0,0,1.18,4.36Z"/></svg>